<?xml version="1.0" encoding="UTF-8" standalone="no"?>
<!-- Created with Inkscape (http://www.inkscape.org/) -->

<svg
   width="161.14mm"
   height="121.62687mm"
   viewBox="0 0 161.14 121.62687"
   version="1.1"
   id="svg5"
   xml:space="preserve"
   inkscape:version="1.2.2 (732a01da63, 2022-12-09)"
   sodipodi:docname="Logo-only-color-noBg.svg"
   xmlns:inkscape="http://www.inkscape.org/namespaces/inkscape"
   xmlns:sodipodi="http://sodipodi.sourceforge.net/DTD/sodipodi-0.dtd"
   xmlns="http://www.w3.org/2000/svg"
   xmlns:svg="http://www.w3.org/2000/svg"><sodipodi:namedview
     id="namedview7"
     pagecolor="#505050"
     bordercolor="#eeeeee"
     borderopacity="1"
     inkscape:showpageshadow="0"
     inkscape:pageopacity="0"
     inkscape:pagecheckerboard="0"
     inkscape:deskcolor="#505050"
     inkscape:document-units="mm"
     showgrid="false"
     inkscape:zoom="0.914906"
     inkscape:cx="340.47214"
     inkscape:cy="244.8339"
     inkscape:window-width="1673"
     inkscape:window-height="1401"
     inkscape:window-x="906"
     inkscape:window-y="0"
     inkscape:window-maximized="0"
     inkscape:current-layer="layer1" /><defs
     id="defs2" /><g
     inkscape:label="Calque 1"
     inkscape:groupmode="layer"
     id="layer1"
     transform="translate(-19.779536,-13.508865)"><g
       id="g266"
       transform="matrix(0.26458333,0,0,0.26458333,-1.5401557,-24.972651)"><path
         stroke="#000000"
         fill="none"
         stroke-width="1"
         d="m 334.287,474.662 v -10e-4 l 5.106,0.258 4.959,0.758 4.787,1.232 4.59,1.681 4.367,2.106 4.12,2.504 3.848,2.877 3.549,3.227 3.226,3.549 2.877,3.847 2.504,4.12 2.106,4.368 1.681,4.59 1.232,4.787 0.758,4.96 0.258,5.106 -0.258,5.106 -0.758,4.959 -1.232,4.787 -1.681,4.59 -2.106,4.367 -2.504,4.12 -2.878,3.848 -3.226,3.549 -3.549,3.226 -3.847,2.877 -4.12,2.504 -4.367,2.106 -4.59,1.681 -4.787,1.232 -4.959,0.758 -5.106,0.258 -5.106,-0.258 -4.959,-0.758 -4.787,-1.232 -4.59,-1.681 -4.368,-2.106 -4.12,-2.504 -3.847,-2.878 -3.549,-3.226 -3.226,-3.549 -2.878,-3.847 -2.504,-4.12 -2.105,-4.367 -1.682,-4.59 -1.232,-4.787 -0.758,-4.959 -0.258,-5.106 0.258,-5.106 0.758,-4.96 1.232,-4.787 1.682,-4.59 2.105,-4.368 2.504,-4.12 2.878,-3.847 3.226,-3.549 3.549,-3.226 3.847,-2.878 4.12,-2.504 4.368,-2.105 4.59,-1.681 4.787,-1.232 4.959,-0.758 5.106,-0.258"
         id="path230" /><path
         stroke="#000000"
         fill="none"
         stroke-width="1"
         d="m 131.048,472.462 v 0.001 l 5.106,0.258 4.959,0.758 4.787,1.232 4.59,1.681 4.368,2.106 4.12,2.504 3.847,2.878 3.549,3.226 3.226,3.549 2.878,3.847 2.504,4.12 2.105,4.367 1.682,4.59 1.232,4.787 0.758,4.959 0.258,5.106 -0.258,5.106 -0.758,4.959 -1.232,4.788 -1.682,4.59 -2.105,4.367 -2.504,4.12 -2.878,3.847 -3.226,3.55 -3.549,3.226 -3.847,2.877 -4.12,2.504 -4.368,2.106 -4.59,1.681 -4.787,1.232 -4.959,0.758 -5.106,0.258 -5.106,-0.258 -4.959,-0.758 -4.787,-1.232 -4.59,-1.681 -4.368,-2.106 -4.12,-2.504 -3.847,-2.878 -3.549,-3.226 -3.226,-3.549 -2.878,-3.847 -2.504,-4.12 -2.106,-4.367 -1.681,-4.59 -1.232,-4.787 -0.758,-4.959 -0.258,-5.106 0.258,-5.106 0.758,-4.959 1.232,-4.787 1.681,-4.59 2.106,-4.368 2.504,-4.12 2.878,-3.847 3.226,-3.55 3.549,-3.226 3.847,-2.878 4.12,-2.504 4.368,-2.105 4.59,-1.682 4.787,-1.232 4.959,-0.758 5.106,-0.258"
         id="path232" /><path
         stroke="#000000"
         fill="none"
         stroke-width="1"
         d="m 435.906,295.985 5.106,0.258 4.959,0.758 4.787,1.232 4.59,1.682 4.368,2.105 4.12,2.504 3.847,2.878 3.549,3.226 3.226,3.549 2.878,3.847 2.504,4.12 2.105,4.368 1.682,4.59 1.232,4.787 0.758,4.959 0.258,5.106 -0.258,5.106 -0.758,4.959 -1.232,4.787 -1.682,4.59 -2.105,4.367 -2.504,4.12 -2.878,3.848 -3.226,3.549 -3.549,3.226 -3.847,2.877 -4.12,2.504 -4.368,2.106 -4.59,1.681 -4.787,1.232 -4.959,0.758 -5.106,0.258 -5.106,-0.258 -4.959,-0.758 -4.787,-1.232 -4.59,-1.681 -4.368,-2.106 -4.12,-2.504 -3.847,-2.877 -3.549,-3.226 -3.226,-3.549 -2.878,-3.848 -2.504,-4.12 -2.105,-4.367 -1.682,-4.59 -1.232,-4.787 -0.758,-4.959 -0.258,-5.106 0.258,-5.106 0.758,-4.959 1.232,-4.787 1.682,-4.59 2.105,-4.368 2.504,-4.12 2.878,-3.847 3.226,-3.549 3.549,-3.226 3.847,-2.878 4.12,-2.504 4.368,-2.105 4.59,-1.682 4.787,-1.232 4.959,-0.758 5.106,-0.258"
         id="path234" /><path
         stroke="#000000"
         fill="none"
         stroke-width="1"
         d="m 232.667,295.985 5.106,0.258 4.959,0.758 4.788,1.232 4.59,1.682 4.367,2.105 4.12,2.504 3.847,2.878 3.55,3.226 3.226,3.549 2.877,3.847 2.504,4.12 2.106,4.368 1.681,4.59 1.232,4.787 0.758,4.959 0.258,5.106 -0.258,5.106 -0.758,4.959 -1.232,4.787 -1.682,4.59 -2.105,4.367 -2.504,4.12 -2.878,3.848 -3.226,3.549 -3.549,3.226 -3.847,2.877 -4.12,2.504 -4.368,2.106 -4.59,1.681 -4.787,1.232 -4.959,0.758 -5.106,0.258 -5.106,-0.258 -4.959,-0.758 -4.787,-1.232 -4.59,-1.681 -4.367,-2.106 -4.12,-2.504 -3.848,-2.877 -3.549,-3.226 -3.226,-3.549 -2.877,-3.848 -2.504,-4.12 -2.106,-4.367 -1.681,-4.59 -1.232,-4.787 -0.758,-4.959 -0.258,-5.106 0.258,-5.106 0.758,-4.959 1.232,-4.787 1.681,-4.59 2.106,-4.368 2.504,-4.12 2.878,-3.847 3.226,-3.549 3.549,-3.226 3.847,-2.878 4.12,-2.504 4.367,-2.105 4.59,-1.682 4.787,-1.232 4.959,-0.758 5.106,-0.258"
         id="path236" /><path
         stroke="#000000"
         fill="none"
         stroke-width="1"
         d="m 639.142,177.648 5.106,0.258 4.96,0.758 4.787,1.232 4.59,1.681 4.368,2.105 4.12,2.504 3.847,2.878 3.549,3.226 3.226,3.549 2.878,3.847 2.504,4.12 2.105,4.368 1.681,4.59 1.232,4.787 0.758,4.96 0.258,5.106 -0.258,5.106 -0.758,4.959 -1.232,4.787 -1.681,4.59 -2.105,4.367 -2.504,4.12 -2.878,3.848 -3.226,3.549 -3.549,3.226 -3.847,2.877 -4.12,2.504 -4.367,2.106 -4.59,1.681 -4.787,1.232 -4.96,0.758 -5.106,0.258 -5.106,-0.258 -4.959,-0.758 -4.788,-1.232 -4.59,-1.681 -4.367,-2.106 -4.12,-2.504 -3.848,-2.877 -3.549,-3.226 -3.226,-3.549 -2.878,-3.848 -2.504,-4.12 -2.105,-4.367 -1.682,-4.59 -1.232,-4.787 -0.758,-4.959 -0.258,-5.106 0.258,-5.106 0.758,-4.96 1.232,-4.787 1.682,-4.59 2.105,-4.368 2.504,-4.12 2.878,-3.847 3.226,-3.549 3.549,-3.226 3.847,-2.878 4.12,-2.504 4.368,-2.105 4.59,-1.681 4.787,-1.232 4.959,-0.758 5.106,-0.258"
         id="path238" /><path
         stroke="#000000"
         fill="none"
         stroke-width="1"
         d="m 232.667,552.917 41.152,-23.758 0.805,6.334 1.44,6.114 2.041,5.86 2.607,5.57 3.138,5.245 3.635,4.886 4.097,4.492 4.523,4.062 -51.436,29.697 -2.859,1.406 -2.98,1.005 -3.06,0.602 -3.101,0.201 -3.102,-0.201 -3.06,-0.602 -2.98,-1.005 -2.859,-1.406 -53.051,-30.63 4.664,-3.914 4.248,-4.357 3.797,-4.764 3.312,-5.136 2.79,-5.473 2.236,-5.776 1.644,-6.044 1.019,-6.276 41.34,23.868"
         id="path240" /><path
         stroke="#000000"
         fill="none"
         stroke-width="1"
         d="m 663.143,283.307 h 10e-4 v 62.647 l -0.211,3.179 -0.62,3.083 -1.008,2.953 -1.376,2.786 -1.725,2.585 -2.052,2.349 -2.36,2.079 -2.648,1.772 -89.617,51.74 v 103.483 l -0.211,3.179 -0.62,3.084 -1.009,2.952 -1.376,2.786 -1.725,2.585 -2.053,2.349 -2.36,2.079 -2.648,1.772 -101.62,58.67 -2.859,1.406 -2.98,1.005 -3.06,0.602 -3.101,0.201 -3.102,-0.201 -3.06,-0.602 -2.98,-1.005 -2.859,-1.406 -51.435,-29.697 4.522,-4.063 4.096,-4.492 3.634,-4.886 3.139,-5.245 2.607,-5.57 2.041,-5.859 1.441,-6.114 0.805,-6.334 41.152,23.758 77.619,-44.786 0.02,-89.638 -41.423,-23.917 4.694,-3.883 4.281,-4.327 3.832,-4.738 3.349,-5.113 2.829,-5.453 2.276,-5.759 1.687,-6.028 1.063,-6.263 41.392,23.896 77.616,-44.812 v -48.789 l 5.787,2.154 5.96,1.549 6.088,0.933 6.167,0.308 6.311,-0.325 6.126,-0.953 5.907,-1.551 5.656,-2.115"
         id="path242" /><path
         stroke="#000000"
         fill="none"
         stroke-width="1"
         d="m 334.287,376.908 h -10e-4 l 41.39,-23.896 1.063,6.262 1.687,6.027 2.276,5.757 2.829,5.453 3.349,5.113 3.833,4.739 4.281,4.329 4.696,3.884 -41.403,23.904 v 50.457 l -5.786,-2.153 -5.961,-1.548 -6.087,-0.934 -6.166,-0.308 -6.167,0.308 -6.087,0.933 -5.961,1.549 -5.787,2.153 V 418.48 l -41.402,-23.904 4.695,-3.883 4.281,-4.327 3.832,-4.738 3.348,-5.113 2.83,-5.453 2.276,-5.759 1.686,-6.028 1.063,-6.263 41.393,23.896"
         id="path244" /><path
         stroke="#000000"
         fill="none"
         stroke-width="1"
         d="m 172.44,353.012 h 0.001 l 1.063,6.262 1.687,6.027 2.275,5.757 2.83,5.453 3.348,5.113 3.832,4.739 4.282,4.329 4.695,3.884 -41.403,23.904 v 48.262 l -5.657,-2.115 -5.907,-1.551 -6.125,-0.955 -6.312,-0.325 -6.167,0.308 -6.087,0.934 -5.961,1.549 -5.786,2.155 v -62.117 l 0.211,-3.179 0.62,-3.084 1.008,-2.952 1.377,-2.786 1.724,-2.585 2.053,-2.349 2.361,-2.078 2.648,-1.772 53.39,-30.828"
         id="path246" /><path
         stroke="#000000"
         fill="none"
         stroke-width="1"
         d="m 208.666,290.263 5.786,-2.155 5.961,-1.549 6.087,-0.934 6.167,-0.308 6.167,0.308 6.088,0.934 5.96,1.549 5.787,2.155 v -47.792 l 77.618,-44.813 77.618,44.813 v 47.792 l 5.786,-2.155 5.961,-1.549 6.087,-0.934 6.167,-0.308 6.167,0.308 6.087,0.934 5.961,1.549 5.786,2.155 v -47.792 l 77.618,-44.813 41.288,23.84 0.968,-6.289 1.595,-6.06 2.189,-5.795 2.746,-5.496 3.27,-5.163 3.759,-4.793 4.212,-4.39 4.63,-3.951 -52.657,-30.402 -2.859,-1.407 -2.98,-1.005 -3.061,-0.603 -3.101,-0.201 -3.101,0.201 -3.061,0.603 -2.98,1.005 -2.859,1.407 -89.617,51.74 -89.62,-51.74 -2.859,-1.407 -2.98,-1.005 -3.06,-0.603 -3.102,-0.201 -3.101,0.201 -3.06,0.603 -2.98,1.005 -2.859,1.407 -101.617,58.67 -2.648,1.772 -2.361,2.078 -2.053,2.349 -1.725,2.586 -1.376,2.786 -1.009,2.952 -0.619,3.084 -0.211,3.179 v 61.648"
         id="path248" /></g><path
       style="fill:#ffffff;stroke-width:1.09301"
       d="m 204.39258,161.29214 c 0,-30.54753 0.15594,-33.2564 2.13809,-37.14173 1.17595,-2.30505 3.57873,-5.40323 5.33952,-6.88483 1.76079,-1.48161 26.98987,-16.42206 56.06462,-33.200999 l 52.86317,-30.507167 h 7.65388 7.65387 l 46.42477,26.778708 c 25.53362,14.728289 46.92799,26.778708 47.54305,26.778708 0.61505,0 22.02207,-12.050419 47.57115,-26.778708 l 46.45285,-26.778708 h 7.65106 7.65106 l 27.48085,15.838513 27.48084,15.838511 -5.02923,5.184377 c -2.76608,2.851408 -6.66451,7.774496 -8.66318,10.940195 -3.55842,5.63621 -7.93252,17.61267 -7.93252,21.71957 0,1.13899 -0.21017,2.07089 -0.46706,2.07089 -0.25688,0 -9.43236,-5.18786 -20.38993,-11.52857 -10.95758,-6.34072 -20.46152,-11.2978 -21.11986,-11.01574 -0.65834,0.28206 -18.16594,10.33458 -38.90577,22.33894 l -37.7088,21.82612 -0.2949,23.74121 -0.29492,23.7412 -2.4376,-0.71086 c -6.66528,-1.94373 -17.11861,-3.86684 -21.01876,-3.86684 -3.90015,0 -14.35349,1.92311 -21.01876,3.86684 l -2.43761,0.71086 -0.29491,-23.73632 L 406.05264,146.78 371.07637,126.59118 C 351.83942,115.48733 334.3531,105.4202 332.21789,104.21978 l -3.88222,-2.18258 -38.74511,22.39747 -38.74512,22.39748 -0.29491,23.71024 -0.2949,23.71024 -2.43762,-0.71086 c -6.66527,-1.94373 -17.1186,-3.86684 -21.01876,-3.86684 -4.27869,0 -16.70027,2.30993 -20.4939,3.81107 -1.79612,0.71073 -1.91277,-1.25254 -1.91277,-32.19386 z"
       id="path408"
       transform="scale(0.26458333)" /><path
       style="fill:#ffffff;stroke-width:1.09301"
       d="m 413.33954,297.34603 c -13.91156,-5.16671 -25.10722,-17.0106 -29.78555,-31.51014 -1.98135,-6.14078 -2.2976,-9.08708 -1.83892,-17.13165 0.70384,-12.3444 4.66895,-21.39432 13.37072,-30.51722 19.6149,-20.56417 50.41118,-20.56417 70.02607,0 8.70178,9.1229 12.66688,18.17282 13.37073,30.51722 0.45868,8.04457 0.14242,10.99087 -1.83893,17.13165 -4.75719,14.74398 -16.70436,27.11178 -30.78215,31.86592 -9.7154,3.28095 -23.12494,3.13425 -32.52197,-0.35578 z"
       id="path410"
       transform="scale(0.26458333)" /><path
       style="fill:#ffffff;stroke-width:1.09301"
       d="m 620.71127,180.40163 c -7.59475,-2.09442 -15.76693,-6.9492 -21.96064,-13.04599 -16.62152,-16.3614 -18.7254,-43.80473 -4.80758,-62.71075 9.42368,-12.801157 23.59873,-19.936735 39.60496,-19.936735 36.54759,0 59.61598,38.523015 42.80312,71.478955 -2.93109,5.74541 -12.26662,15.50132 -18.1106,18.92612 -10.88329,6.37803 -25.90318,8.49455 -37.52926,5.2884 z"
       id="path412"
       transform="scale(0.26458333)" /><path
       style="fill:#ffffff;stroke-width:1.09301"
       d="m 421.35476,507.30916 c -3.1031,-1.43765 -50.90786,-28.88013 -51.78423,-29.72691 -0.22706,-0.21939 1.88865,-2.95867 4.70157,-6.08732 5.65312,-6.28764 13.21112,-20.94039 14.30513,-27.7335 0.38725,-2.40462 0.89258,-4.97723 1.12294,-5.71692 0.26384,-0.84718 7.79553,2.92372 20.35224,10.18978 l 19.9334,11.53467 3.88204,-2.18249 c 2.13512,-1.20036 19.62136,-11.26783 38.85831,-22.37216 l 34.97627,-20.18965 v -46.10369 -46.10369 l -19.12765,-11.00243 c -10.52021,-6.05133 -19.34476,-11.19045 -19.61011,-11.42026 -0.26535,-0.22982 2.04213,-2.98791 5.12775,-6.1291 7.3557,-7.48819 12.69473,-16.5673 15.09664,-25.67208 1.06852,-4.05041 2.04018,-7.5043 2.15924,-7.6753 0.11906,-0.17099 9.17063,4.87051 20.11459,11.20334 10.94396,6.33283 20.05309,11.51424 20.24251,11.51424 0.18941,0 17.73745,-10.04556 38.99561,-22.32348 l 38.6512,-22.32348 0.29446,-24.23818 c 0.27302,-22.47451 0.43209,-24.18364 2.18602,-23.48864 10.25588,4.06396 28.65514,4.58364 38.55973,1.08909 2.52697,-0.89156 4.77858,-1.62102 5.00357,-1.62102 0.225,0 0.40908,15.02113 0.40908,33.3803 0,30.66163 -0.16937,33.71058 -2.07964,37.43554 -1.14381,2.23038 -3.24901,5.14605 -4.67823,6.47927 -1.42922,1.33322 -22.74976,14.04566 -47.37899,28.24988 -24.62922,14.20423 -45.39522,26.33072 -46.14666,26.94777 -1.05978,0.87026 -1.36626,13.36099 -1.36626,55.68206 0,51.99548 -0.10045,54.75715 -2.13809,58.75114 -1.17595,2.30505 -3.57874,5.40322 -5.33952,6.88483 -1.7608,1.48161 -26.9701,16.40531 -56.02066,33.1638 -51.54378,29.73419 -52.97866,30.47785 -59.42123,30.79686 -4.00416,0.19826 -7.89228,-0.27088 -9.88103,-1.19227 z"
       id="path414"
       transform="scale(0.26458333)" /><path
       style="fill:#ffffff;stroke-width:1.09301"
       d="M 304.69588,347.85644 304.40286,322.755 285.82171,311.97659 c -10.21963,-5.92812 -19.04226,-10.94884 -19.60584,-11.15715 -0.56358,-0.20831 1.06527,-2.46871 3.61968,-5.02311 8.52655,-8.52656 17.62567,-25.63484 17.62567,-33.14003 0,-1.08558 0.21524,-1.97378 0.4783,-1.97378 0.26306,0 9.41621,5.16446 20.34032,11.47659 10.92412,6.31212 20.01836,11.47658 20.20943,11.47658 0.19106,0 9.30154,-5.18141 20.2455,-11.51424 10.94396,-6.33283 19.99552,-11.37433 20.11458,-11.20334 0.11906,0.171 1.09072,3.62489 2.15925,7.6753 2.4019,9.10478 7.74093,18.18389 15.09664,25.67208 3.08561,3.14119 5.3931,5.89928 5.12775,6.1291 -0.26536,0.22981 -9.08991,5.36859 -19.61011,11.41951 l -19.12765,11.00166 -0.29303,25.07106 -0.29302,25.07106 -7.33438,-2.03377 c -4.35114,-1.20652 -10.91025,-2.03376 -16.12576,-2.03376 -5.2155,0 -11.77462,0.82724 -16.12576,2.03376 l -7.33438,2.03377 z"
       id="path416"
       transform="scale(0.26458333)" /><path
       style="fill:#ffffff;stroke-width:1.09301"
       d="m 317.47365,477.75959 c -22.05758,-5.35876 -37.66349,-25.11441 -37.66349,-47.67851 0,-35.47863 37.16871,-58.9384 69.40604,-43.80701 25.97484,12.19193 35.64592,44.22037 20.93315,69.32583 -3.76521,6.42483 -13.59005,15.2511 -20.66245,18.56236 -10.64592,4.98436 -21.35204,6.18741 -32.01325,3.59733 z"
       id="path418"
       transform="scale(0.26458333)" /><path
       style="fill:#ffffff;stroke-width:1.09301"
       d="m 214.04718,505.09595 c -3.80714,-2.03471 -16.57107,-9.30429 -28.36428,-16.15462 l -21.44219,-12.45514 5.77521,-6.20459 c 6.57001,-7.05847 14.20724,-21.37815 15.3046,-28.69585 0.40652,-2.71088 0.89851,-4.92887 1.09332,-4.92887 0.1948,0 9.2921,5.16446 20.21622,11.47659 10.92411,6.31212 20.02341,11.47659 20.22065,11.47659 0.19725,0 9.29654,-5.16447 20.22066,-11.47659 10.92412,-6.31213 19.99074,-11.47659 20.14805,-11.47659 0.15732,0 0.6214,2.58223 1.0313,5.73829 1.0058,7.74411 8.11676,22.1388 14.37526,29.09976 2.81293,3.12864 4.92863,5.86582 4.70157,6.08263 -1.19115,1.13736 -49.03118,28.48966 -52.02237,29.74353 -6.30261,2.64196 -13.57563,1.88068 -21.258,-2.22514 z"
       id="path420"
       transform="scale(0.26458333)" /><path
       style="fill:#ffffff;stroke-width:1.09301"
       d="M 114.17408,475.57357 C 87.383895,469.06505 71.247891,442.02422 78.206942,415.2996 c 6.055476,-23.25465 30.698808,-39.41736 54.085358,-35.47271 25.69516,4.33405 42.66654,25.54293 41.29837,51.60996 -0.38266,7.29054 -1.16802,10.61508 -3.87325,16.39604 -10.0269,21.42699 -33.42665,33.11381 -55.54334,27.74068 z"
       id="path422"
       transform="scale(0.26458333)" /><path
       style="fill:#ffffff;stroke-width:1.09301"
       d="m 143.73061,369.15555 c -6.87976,-2.51091 -24.9477,-3.01987 -32.94802,-0.9281 -3.6937,0.96575 -7.01372,1.75591 -7.37781,1.75591 -0.36409,0 -0.66199,-14.77521 -0.66199,-32.83379 0,-30.12445 0.17161,-33.16843 2.07965,-36.88904 1.14381,-2.23038 3.23419,-5.12454 4.64529,-6.43146 2.51454,-2.32889 55.66531,-33.48988 56.11716,-32.90011 0.12644,0.16504 0.83027,2.75933 1.56407,5.7651 2.26113,9.26199 7.56238,18.86593 14.51826,26.30179 3.64971,3.90154 6.44411,7.25695 6.20978,7.45646 -0.23433,0.19951 -9.14715,5.39044 -19.80627,11.53539 l -19.38023,11.17265 -0.29393,23.79544 -0.29392,23.79543 z"
       id="path424"
       transform="scale(0.26458333)" /><path
       style="fill:#ffffff;stroke-width:1.09301"
       d="m 211.9393,297.95657 c -29.15649,-9.32822 -42.30836,-42.96902 -27.49789,-70.33613 3.38443,-6.25383 13.41209,-16.06634 19.69332,-19.27078 24.95544,-12.73132 54.03191,-2.85403 66.6652,22.64619 10.04943,20.2847 3.56967,46.08662 -14.99665,59.71555 -12.21249,8.96479 -29.54225,11.82721 -43.86398,7.24517 z"
       id="path426"
       transform="scale(0.26458333)" /><path
       style="fill:#ffd460;stroke-width:1.09301;fill-opacity:1"
       d="m 350.09883,456.36721 c -1.91918,-0.45506 -8.55921,-3.67894 -14.75562,-7.1642 -18.47107,-10.38928 -39.13792,-22.57321 -39.13792,-23.07335 0,-0.25695 2.03816,-3.03494 4.52923,-6.17331 5.6621,-7.13338 12.62741,-21.33037 13.57927,-27.67784 0.39647,-2.64386 0.93053,-4.80701 1.1868,-4.80701 1.01029,0 10.367,5.05277 24.70747,13.34243 l 15.03805,8.69289 39.35074,-22.65423 39.35074,-22.65422 -0.28487,-46.44791 -0.28486,-46.44791 -18.37646,-10.66145 c -10.10705,-5.8638 -18.63595,-10.92094 -18.95311,-11.23811 -0.31716,-0.31716 2.15636,-3.79832 5.49671,-7.7359 6.98497,-8.23382 9.94563,-13.56134 13.21061,-23.77165 l 2.32294,-7.2643 19.96347,11.36473 19.96348,11.36473 39.28433,-22.5978 39.28432,-22.5978 v -22.1278 c 0,-12.17029 0.26864,-22.82786 0.59698,-23.6835 0.51078,-1.3311 1.4131,-1.344 6.24974,-0.0894 7.60452,1.97259 25.3141,1.88344 32.05462,-0.16137 2.95102,-0.89522 5.51471,-1.63301 5.69705,-1.63951 0.18236,-0.007 0.18236,15.11267 0,33.59818 -0.32664,33.11239 -0.36963,33.67127 -2.90392,37.74755 -3.1499,5.06647 -4.0211,5.62543 -54.81058,35.16655 -22.54329,13.11206 -41.47967,24.28951 -42.08082,24.8388 -0.68711,0.62782 -1.29596,21.60899 -1.63951,56.49746 l -0.54651,55.49875 -2.95479,4.46245 c -3.31825,5.01134 -6.24318,6.86133 -60.70906,38.39778 -50.81833,29.42448 -55.8309,31.73486 -64.42852,29.69627 z"
       id="path200"
       transform="matrix(0.26458333,0,0,0.26458333,19.779536,13.508865)" /><path
       style="fill:#ffd460;fill-opacity:1;stroke-width:1.09301"
       d="m 549.42944,129.44499 c -16.45125,-3.23748 -31.52266,-16.86368 -36.39511,-32.905152 -1.83745,-6.049429 -2.21791,-9.600556 -1.85092,-17.276387 0.40181,-8.404257 0.98322,-10.716535 4.467,-17.765495 14.24557,-28.823952 52.5109,-36.329286 74.94558,-14.699775 10.66252,10.279842 15.57277,21.49084 15.5743,35.558991 0.002,14.449622 -4.13057,23.760418 -15.25182,34.366328 -7.66114,7.30614 -15.22552,11.11498 -25.28659,12.73238 -8.04091,1.29264 -9.58379,1.29161 -16.20244,-0.0109 z"
       id="path1155"
       transform="matrix(0.26458333,0,0,0.26458333,19.779536,13.508865)" /><path
       style="fill:#ffd460;fill-opacity:1;stroke-width:1.09301"
       d="m 166.68379,140.28298 c -10.28093,-2.26764 -18.23387,-2.37763 -27.32521,-0.3779 -3.90751,0.8595 -7.47345,1.58 -7.92431,1.60112 -0.45087,0.0211 -0.81976,-14.55104 -0.81976,-32.38258 V 76.70265 l 2.6801,-4.573249 c 2.99532,-5.111113 6.49772,-7.3773 53.60984,-34.687616 C 251.961,-0.27069699 246.1846,2.7325212 253.66427,2.7325212 h 6.6998 l 46.73797,26.7787068 c 25.70588,14.72829 47.1976,26.778708 47.75937,26.778708 1.70603,0 6.36657,-2.567487 51.7958,-28.534246 L 450.4356,2.7325212 h 6.6758 c 6.58664,0 7.02852,0.203051 33.0917,15.2062098 14.52875,8.363416 26.68353,15.473827 27.01062,15.800915 0.32709,0.327089 -2.00471,3.69026 -5.18178,7.473716 -6.28067,7.47942 -13.0107,20.70793 -13.89701,27.315919 -0.30657,2.285679 -0.86154,4.153151 -1.23325,4.149934 -0.37171,-0.0032 -6.33216,-3.246799 -13.24544,-7.207963 -6.91327,-3.961164 -15.92969,-8.903441 -20.03648,-10.982837 l -7.46689,-3.780722 -30.78841,17.752143 c -16.93362,9.763678 -34.34373,19.750087 -38.68914,22.192021 l -7.90072,4.439879 -0.0236,23.596584 -0.0236,23.59658 -9.56383,-2.11108 c -10.43798,-2.30405 -20.44745,-2.11725 -30.46054,0.56844 l -5.59459,1.50057 -0.6902,-8.16509 c -0.37962,-4.4908 -0.69602,-15.09979 -0.70311,-23.57554 L 331.70225,95.091736 293.99002,73.398217 C 273.24829,61.466781 255.4244,51.498481 254.38137,51.246437 c -1.09323,-0.264175 -18.09851,8.924542 -40.15171,21.695776 l -38.2553,22.154036 -0.5465,23.497421 -0.54651,23.49743 z"
       id="path1157"
       transform="matrix(0.26458333,0,0,0.26458333,19.779536,13.508865)" /><path
       style="fill:#ffd460;fill-opacity:1;stroke-width:1.09301"
       d="m 344.89871,247.46632 c -12.85905,-2.52103 -26.57108,-13.67179 -33.01124,-26.84506 -3.50536,-7.17016 -3.65908,-8.01372 -3.65908,-20.07881 0,-12.01379 0.16456,-12.92839 3.57085,-19.84601 7.85332,-15.94881 23.97658,-27.02857 40.74449,-27.99925 25.19157,-1.45832 47.4171,17.41212 50.10186,42.53865 1.09323,10.23151 -0.10425,17.30541 -4.41437,26.07699 -9.83875,20.02295 -31.19184,30.4942 -53.33251,26.15349 z"
       id="path1159"
       transform="matrix(0.26458333,0,0,0.26458333,19.779536,13.508865)" /><path
       style="fill:#ffd460;fill-opacity:1;stroke-width:1.09301"
       d="m 230.79165,312.51212 c -0.39236,-4.6415 -0.71899,-15.86564 -0.72586,-24.94255 l -0.0125,-16.50347 -19.0057,-10.91877 -19.00569,-10.91877 3.50494,-3.87955 c 7.47643,-8.27553 13.90921,-19.28988 16.94863,-29.01985 l 1.73418,-5.55155 19.64096,11.19378 c 19.59442,11.16726 19.6488,11.18975 22.95317,9.49547 1.82172,-0.93407 10.49751,-5.80938 19.27953,-10.83402 8.78203,-5.02464 16.4119,-9.1357 16.95529,-9.1357 0.54338,0 1.88347,3.12691 2.97798,6.94869 2.57366,8.98663 6.81374,16.31562 13.96765,24.14315 4.56198,4.99152 5.42537,6.49017 4.17396,7.245 -0.86778,0.52344 -9.44744,5.53569 -19.06592,11.13833 l -17.48813,10.18664 -0.29377,24.81952 c -0.16158,13.65073 -0.65343,24.80199 -1.09301,24.78058 -0.43958,-0.0214 -3.75036,-0.75151 -7.35729,-1.62244 -10.02367,-2.42031 -23.17595,-2.02134 -34.53616,1.04766 -2.83768,0.7666 -2.83922,0.76328 -3.55227,-7.67215 z"
       id="path1161"
       transform="matrix(0.26458333,0,0,0.26458333,19.779536,13.508865)" /><path
       style="fill:#ffd460;fill-opacity:1;stroke-width:1.09301"
       d="m 141.89092,247.51613 c -15.997,-3.1621 -30.33712,-16.45074 -35.43784,-32.83938 -11.193535,-35.9649 23.41827,-71.21749 59.03829,-60.1313 22.59161,7.0313 37.56266,30.04458 34.08486,52.39475 -4.30069,27.63846 -30.36962,45.97538 -57.68531,40.57593 z"
       id="path1163"
       transform="matrix(0.26458333,0,0,0.26458333,19.779536,13.508865)" /><path
       style="fill:#ffd460;fill-opacity:1;stroke-width:1.09301"
       d="m 28.964724,285.501 v -32.82399 l 2.723982,-4.64812 c 2.324497,-3.96645 5.410175,-6.24322 21.040413,-15.52464 28.512383,-16.93101 35.670004,-21.00711 36.888372,-21.00711 0.621232,0 2.054421,3.22957 3.184866,7.17683 2.245374,7.84034 8.282133,17.99533 15.148943,25.48346 3.43402,3.74474 4.05973,4.99026 2.8704,5.71382 -0.83647,0.50889 -9.39051,5.51463 -19.008989,11.12388 l -17.488136,10.19862 -0.676895,8.13374 c -0.372294,4.47355 -0.741185,15.19528 -0.819757,23.82605 -0.131698,14.4662 -0.292313,15.63456 -2.055625,14.95329 -7.737034,-2.98931 -25.498559,-3.61971 -35.522775,-1.26079 l -6.284799,1.47894 z"
       id="path1165"
       transform="matrix(0.26458333,0,0,0.26458333,19.779536,13.508865)" /><path
       style="fill:#ffd460;fill-opacity:1;stroke-width:1.09301"
       d="M 42.862373,424.61167 C 29.863711,422.3733 14.965002,411.82368 8.7963976,400.48992 -7.3723363,370.78263 10.219869,335.14562 43.898955,329.38171 c 19.517373,-3.34025 40.431303,8.12344 49.815174,27.30551 3.420148,6.99131 3.563624,7.81267 3.563624,20.4007 0,11.94215 -0.262187,13.67549 -2.929324,19.36599 -3.221237,6.87271 -11.047112,15.8674 -17.837837,20.50196 -9.288,6.33892 -23.076798,9.47621 -33.648219,7.6558 z"
       id="path1167"
       transform="matrix(0.26458333,0,0,0.26458333,19.779536,13.508865)" /><path
       style="fill:#ffd460;fill-opacity:1;stroke-width:1.09301"
       d="m 145.05268,455.67635 c -3.83318,-1.34326 -18.45226,-9.45836 -51.769863,-28.73761 l -2.901927,-1.6792 5.322631,-5.8238 c 5.288759,-5.78674 15.236839,-23.81578 15.236839,-27.61392 0,-5.60734 0.87486,-5.45261 15.10665,2.67173 7.62194,4.35106 16.60475,9.45909 19.9618,11.35118 l 6.10372,3.44017 19.20764,-10.9067 c 10.56419,-5.99868 19.67812,-10.9067 20.25316,-10.9067 0.57504,0 1.35883,2.28577 1.74175,5.07949 0.93506,6.82196 7.31862,19.80755 13.41892,27.29709 2.73529,3.35819 4.55708,6.49197 4.04844,6.96396 -1.98831,1.84501 -48.14638,27.83002 -51.74971,29.13286 -4.98586,1.80273 -8.24822,1.74006 -13.98005,-0.26855 z"
       id="path1169"
       transform="matrix(0.26458333,0,0,0.26458333,19.779536,13.508865)" /><path
       style="fill:#ffd460;fill-opacity:1;stroke-width:1.09301"
       d="m 246.16195,426.79769 c -14.47524,-2.49264 -28.68062,-13.3271 -35.4609,-27.04608 -3.48378,-7.04896 -4.06519,-9.36123 -4.467,-17.76549 -0.90042,-18.83297 6.3793,-33.13245 22.05635,-43.32505 28.42752,-18.48246 67.94776,-0.19773 72.68386,33.62846 2.60175,18.58229 -5.3253,35.9759 -21.45584,47.07861 -8.96999,6.17408 -22.78207,9.25047 -33.35647,7.42955 z"
       id="path1171"
       transform="matrix(0.26458333,0,0,0.26458333,19.779536,13.508865)" /></g></svg>
