<?xml version="1.0" encoding="UTF-8" standalone="no"?>
<!-- Created with Inkscape (http://www.inkscape.org/) -->

<svg
   width="175mm"
   height="175mm"
   viewBox="0 0 175 175"
   version="1.1"
   id="svg5"
   xml:space="preserve"
   inkscape:version="1.2.2 (732a01da63, 2022-12-09)"
   sodipodi:docname="motto_no_background.svg"
   xmlns:inkscape="http://www.inkscape.org/namespaces/inkscape"
   xmlns:sodipodi="http://sodipodi.sourceforge.net/DTD/sodipodi-0.dtd"
   xmlns="http://www.w3.org/2000/svg"
   xmlns:svg="http://www.w3.org/2000/svg"><sodipodi:namedview
     id="namedview7"
     pagecolor="#505050"
     bordercolor="#eeeeee"
     borderopacity="1"
     inkscape:showpageshadow="0"
     inkscape:pageopacity="0"
     inkscape:pagecheckerboard="0"
     inkscape:deskcolor="#505050"
     inkscape:document-units="mm"
     showgrid="false"
     inkscape:zoom="0.16173406"
     inkscape:cx="541.01158"
     inkscape:cy="3079.1288"
     inkscape:window-width="1673"
     inkscape:window-height="1401"
     inkscape:window-x="906"
     inkscape:window-y="0"
     inkscape:window-maximized="0"
     inkscape:current-layer="SvgjsG10214-8" /><defs
     id="defs2" /><g
     inkscape:label="Calque 1"
     inkscape:groupmode="layer"
     id="layer1"
     transform="translate(128.86614,540.89986)"><g
       transform="matrix(2.1452247,0,0,2.1452247,-258.06293,-44.846166)"
       id="g1979"><defs
         id="SvgjsDefs10213" /><g
         id="SvgjsG10214"
         featureKey="symbolFeature-0"
         transform="matrix(0.31575638,0,0,0.31575638,-4.6046749,-5.8142649)"
         fill="#ffd460" /><g
         transform="translate(60.225295,-239.23624)"
         id="g4968"><defs
           id="SvgjsDefs10213-2" /><g
           id="SvgjsG10214-8"
           featureKey="symbolFeature-0"
           transform="matrix(0.31575638,0,0,0.31575638,-4.6046749,-5.8142649)"
           fill="#ffd460"><path
             d="m 123.91338,211.41565 c -10.772,0 -19.518,8.745 -19.518,19.518 0,10.772 8.746,19.518 19.518,19.518 10.772,0 19.518,-8.746 19.518,-19.518 0,-10.773 -8.746,-19.518 -19.518,-19.518 z m -79.385996,-0.859 c -10.772,0 -19.518,8.746 -19.518,19.518 0,10.772 8.746,19.518 19.518,19.518 10.772,0 19.518,-8.746 19.518,-19.518 0,-10.772 -8.746,-19.518 -19.518,-19.518 z m 119.078996,-68.933 c -10.772,0 -19.518,8.746 -19.518,19.518 0,10.772 8.746,19.518 19.518,19.518 10.772,0 19.518,-8.746 19.518,-19.518 0,-10.772 -8.746,-19.518 -19.518,-19.518 z m -79.385996,0 c -10.772,0 -19.518,8.746 -19.518,19.518 0,10.772 8.746,19.518 19.518,19.518 10.772,0 19.517996,-8.746 19.517996,-19.518 0,-10.772 -8.745996,-19.518 -19.517996,-19.518 z M 242.99138,95.400638 c -10.772,0 -19.518,8.745002 -19.518,19.518002 0,10.772 8.746,19.518 19.518,19.518 10.773,0 19.518,-8.746 19.518,-19.518 0,-10.773 -8.745,-19.518002 -19.518,-19.518002 z"
             id="path4957" /><path
             d="m 84.220384,242.30902 -16.148,-9.323 c -0.723,6.646 -4.199,12.469 -9.261,16.304 l 20.722,11.964 c 2.9,1.674 6.474,1.674 9.375,0 l 20.090996,-11.6 c -4.922,-3.996 -8.21,-9.925 -8.705,-16.625 z m 168.145996,-105.311 c -2.875,1.243 -6.045,1.931 -9.375,1.931 -3.329,0 -6.499,-0.688 -9.375,-1.931 v 19.057 c 0,0 -30.317,17.504 -30.317,17.504 l -16.168,-9.334 c -0.77,6.634 -4.286,12.435 -9.379,16.235 l 16.18,9.342 c 0,0 -0.008,35.013 -0.008,35.013 0,0 -30.318,17.494 -30.318,17.494 l -16.074,-9.28 c -0.496,6.7 -3.784,12.628 -8.705,16.625 l 20.091,11.6 c 2.901,1.674 6.475,1.674 9.375,0 0,0 39.693,-22.917 39.693,-22.917 2.901,-1.675 4.688,-4.77 4.688,-8.119 v -40.421 c 0,0 35.005,-20.21 35.005,-20.21 2.901,-1.675 4.687,-4.77 4.687,-8.119 z m -128.453,36.561 -16.168,-9.334 c -0.77,6.634 -4.286,12.435 -9.378996,16.235 l 16.171996,9.337 v 19.709 c 2.876,-1.242 6.046,-1.931 9.375,-1.931 3.329,0 6.499,0.689 9.375,1.931 v -19.709 l 16.172,-9.337 c -5.095,-3.802 -8.61,-9.603 -9.38,-16.235 z m -63.217996,-9.334 -20.855,12.041 c -2.901,1.674 -4.688,4.769 -4.688,8.119 v 24.263 c 2.876,-1.243 6.046,-1.932 9.375,-1.932 3.33,0 6.5,0.689 9.375,1.932 v -18.851 l 16.172,-9.337 c -5.094,-3.802 -8.609,-9.603 -9.379,-16.235 z m 14.15,-24.51 c 2.876,-1.243 6.046,-1.932 9.375,-1.932 3.329,0 6.499,0.689 9.375,1.932 v -18.668 c 0,0 30.317996,-17.504 30.317996,-17.504 0,0 30.318,17.504 30.318,17.504 v 18.668 c 2.875,-1.243 6.045,-1.932 9.375,-1.932 3.329,0 6.499,0.689 9.375,1.932 v -18.668 c 0,0 30.318,-17.504 30.318,-17.504 l 16.127,9.312 c 0.669,-6.658 4.099,-12.506 9.128,-16.381003 l -20.568,-11.875 c -2.901,-1.675 -6.474,-1.675 -9.375,0 0,0 -35.005,20.210003 -35.005,20.210003 0,0 -35.006,-20.210003 -35.006,-20.210003 -2.9,-1.675 -6.474,-1.675 -9.375,0 0,0 -39.691996,22.917003 -39.691996,22.917003 -2.901,1.674 -4.688,4.769 -4.688,8.119 z"
             id="path4959" /></g></g></g></g></svg>
