
        <svg xmlns="http://www.w3.org/2000/svg" xmlns:xlink="http://www.w3.org/1999/xlink" version="1.1" width="3162.1587182499397" 
        height="958.0308312341364" viewBox="0 0 3162.1587182499397 958.0308312341364">
			<rect fill="#2d4059" width="3162.1587182499397" height="958.0308312341364"/>
			<g transform="scale(8.107935912496991) translate(10, 10)">
				<defs id="SvgjsDefs10213"></defs><g id="SvgjsG10214" featureKey="symbolFeature-0" transform="matrix(0.3157563805580139,0,0,0.3157563805580139,-4.604674850919278,-5.814264853505735)" fill="#ffd460"><path xmlns="http://www.w3.org/2000/svg" d="M113.487,172.149c-10.772,-0 -19.518,8.745 -19.518,19.518c-0,10.772 8.746,19.518 19.518,19.518c10.772,-0 19.518,-8.746 19.518,-19.518c-0,-10.773 -8.746,-19.518 -19.518,-19.518Zm-79.386,-0.859c-10.772,0 -19.518,8.746 -19.518,19.518c0,10.772 8.746,19.518 19.518,19.518c10.772,-0 19.518,-8.746 19.518,-19.518c0,-10.772 -8.746,-19.518 -19.518,-19.518Zm119.079,-68.933c-10.772,0 -19.518,8.746 -19.518,19.518c-0,10.772 8.746,19.518 19.518,19.518c10.772,-0 19.518,-8.746 19.518,-19.518c-0,-10.772 -8.746,-19.518 -19.518,-19.518Zm-79.386,0c-10.772,0 -19.518,8.746 -19.518,19.518c0,10.772 8.746,19.518 19.518,19.518c10.772,-0 19.518,-8.746 19.518,-19.518c0,-10.772 -8.746,-19.518 -19.518,-19.518Zm158.771,-46.223c-10.772,-0 -19.518,8.745 -19.518,19.518c0,10.772 8.746,19.518 19.518,19.518c10.773,-0 19.518,-8.746 19.518,-19.518c0,-10.773 -8.745,-19.518 -19.518,-19.518Z"></path><path xmlns="http://www.w3.org/2000/svg" d="M73.794,202.716l-16.148,-9.323c-0.723,6.646 -4.199,12.469 -9.261,16.304l20.722,11.964c2.9,1.674 6.474,1.674 9.375,-0l20.091,-11.6c-4.922,-3.996 -8.21,-9.925 -8.705,-16.625l-16.074,9.28Zm168.146,-105.311c-2.875,1.243 -6.045,1.931 -9.375,1.931c-3.329,0 -6.499,-0.688 -9.375,-1.931l0,19.057c0,0 -30.317,17.504 -30.317,17.504l-16.168,-9.334c-0.77,6.634 -4.286,12.435 -9.379,16.235l16.18,9.342c-0,0 -0.008,35.013 -0.008,35.013c-0,-0 -30.318,17.494 -30.318,17.494l-16.074,-9.28c-0.496,6.7 -3.784,12.628 -8.705,16.625l20.091,11.6c2.901,1.674 6.475,1.674 9.375,-0c0,-0 39.693,-22.917 39.693,-22.917c2.901,-1.675 4.688,-4.77 4.688,-8.119l-0,-40.421c-0,0 35.005,-20.21 35.005,-20.21c2.901,-1.675 4.687,-4.77 4.687,-8.119l0,-24.47Zm-128.453,36.561l-16.168,-9.334c-0.77,6.634 -4.286,12.435 -9.379,16.235l16.172,9.337l-0,19.709c2.876,-1.242 6.046,-1.931 9.375,-1.931c3.329,0 6.499,0.689 9.375,1.931l-0,-19.709l16.172,-9.337c-5.095,-3.802 -8.61,-9.603 -9.38,-16.235l-16.167,9.334Zm-63.218,-9.334l-20.855,12.041c-2.901,1.674 -4.688,4.769 -4.688,8.119l0,24.263c2.876,-1.243 6.046,-1.932 9.375,-1.932c3.33,0 6.5,0.689 9.375,1.932l0,-18.851l16.172,-9.337c-5.094,-3.802 -8.609,-9.603 -9.379,-16.235Zm14.15,-24.51c2.876,-1.243 6.046,-1.932 9.375,-1.932c3.329,0 6.499,0.689 9.375,1.932l0,-18.668c0,0 30.318,-17.504 30.318,-17.504c-0,0 30.318,17.504 30.318,17.504l-0,18.668c2.875,-1.243 6.045,-1.932 9.375,-1.932c3.329,0 6.499,0.689 9.375,1.932l-0,-18.668c-0,0 30.318,-17.504 30.318,-17.504l16.127,9.312c0.669,-6.658 4.099,-12.506 9.128,-16.381l-20.568,-11.875c-2.901,-1.675 -6.474,-1.675 -9.375,0c0,0 -35.005,20.21 -35.005,20.21c-0,0 -35.006,-20.21 -35.006,-20.21c-2.9,-1.675 -6.474,-1.675 -9.375,0c0,0 -39.692,22.917 -39.692,22.917c-2.901,1.674 -4.688,4.769 -4.688,8.119l0,24.08Z"></path></g><g id="SvgjsG10215" featureKey="nameFeature-0" transform="matrix(2.588287353515625,0,0,2.588287353515625,87.54676647139854,-31.057887835737134)" fill="#ffd460"><path d="M10.304 19.403 c-0.83396 0.84792 -1.5 1.8366 -1.9974 2.966 c-0.49824 1.1303 -0.74648 2.3392 -0.74648 3.6312 c0 1.2902 0.24824 2.5009 0.74648 3.6303 c0.4974 1.1303 1.1696 2.119 2.0175 2.966 c0.84704 0.84792 1.8357 1.5123 2.966 1.9965 c1.1294 0.48516 2.3392 0.7264 3.6303 0.7264 l5.4268 3.5901 c-1.6818 0.7264 -3.4896 1.09 -5.4268 1.09 c-1.9354 0 -3.7518 -0.37062 -5.446 -1.1102 c-1.695 -0.7404 -3.181 -1.7491 -4.4592 -3.0262 c-1.2771 -1.278 -2.2859 -2.7702 -3.0254 -4.4784 c-0.7404 -1.7081 -1.1102 -3.5036 -1.1102 -5.3856 c0 -1.9362 0.36976 -3.7527 1.1102 -5.4468 c0.73952 -1.6941 1.7483 -3.174 3.0254 -4.4372 c1.278 -1.2649 2.7649 -2.2658 4.4592 -3.0053 c1.6941 -0.7404 3.5097 -1.1102 5.446 -1.1102 c1.9371 0 3.7448 0.36277 5.4268 1.0901 c1.681 0.7264 3.167 1.7343 4.458 3.0263 l-3.3078 3.2676 c-1.8558 -1.8025 -4.048 -2.7038 -6.576 -2.7038 c-1.2911 0 -2.5079 0.24215 -3.6512 0.7264 c-1.1442 0.48424 -2.132 1.1495 -2.966 1.9965 z M7.5068 29.983 c-0.5446 -1.2343 -0.821 -2.5744 -0.821 -3.9835 c0 -1.4082 0.27711 -2.7492 0.82172 -3.9843 c0.53672 -1.2203 1.2675 -2.3051 2.1731 -3.2256 c0.9126 -0.9266 2.0053 -1.6626 3.2484 -2.1889 c1.2465 -0.52796 2.5892 -0.79548 3.9913 -0.79548 c2.4677 0 4.6672 0.799 6.5492 2.3759 l2.0752 -2.0499 c-1.0542 -0.92572 -2.243 -1.6775 -3.5446 -2.2395 c-1.563 -0.67484 -3.2719 -1.0175 -5.0796 -1.0175 c-1.8068 0 -3.521 0.34879 -5.0972 1.0358 c-1.5883 0.6932 -2.9992 1.6442 -4.1932 2.8261 c-1.1932 1.1801 -2.1478 2.5813 -2.8392 4.1652 c-0.68796 1.5752 -1.0368 3.2903 -1.0368 5.098 c0 1.7544 0.34879 3.4494 1.0376 5.0384 c0.69144 1.5971 1.6478 3.0132 2.8418 4.208 c1.195 1.1932 2.605 2.1504 4.1908 2.8427 c1.5761 0.68796 3.2912 1.0368 5.0964 1.0368 c1.208 0 2.3724 -0.15297 3.4791 -0.45628 l-3.7466 -2.4791 c-1.3077 -0.031484 -2.5534 -0.29808 -3.7073 -0.79372 c-1.2282 -0.52536 -2.3182 -1.2596 -3.2395 -2.1819 c-0.92132 -0.9196 -1.6609 -2.007 -2.1993 -3.2317 z M30.909999999999997 39.61492 l4.6392 -4.2956 l14 0 l0 4.6802 l-18.639 0 l0 -0.38461 z M48.676 36.1944 l-12.783 0 l-3.167 2.9319 l15.95 0 l0 -2.9319 z M30.909999999999997 12 l18.64 0 l0 4.6802 l-14 0 z M48.676 15.806000000000001 l0 -2.9319 l-15.668 0 l2.9065 2.9319 l12.762 0 z M30.909999999999997 28.34 l0 -4.64 l18.639 0 l0 4.64 l-18.639 0 z M31.7841 24.573999999999998 l0 2.8917 l16.891 0 l0 -2.8917 l-16.891 0 z M74.854 18.806 c1.9904 1.9913 2.9991 4.4116 2.9982 7.1932 c0 2.7807 -1.007 5.2136 -2.994 7.23 c-2 1.9703 -4.4188 2.9642 -7.1996 2.9642 c-2.778 0 -5.2088 -0.99216 -7.2256 -2.9502 c-1.9756 -2.035 -2.9686 -4.466 -2.9686 -7.244 c0 -2.7798 0.99392 -5.1984 2.9546 -7.1888 c2.0254 -1.9965 4.458 -3.0044 7.2396 -3.0044 c2.7841 0 5.2048 1.0096 7.1952 3.0001 z M74.236 32.6164 c1.8287 -1.8558 2.7431 -4.0604 2.7431 -6.6164 c0 -2.5542 -0.91432 -4.7456 -2.743 -6.5752 s-4.0212 -2.7439 -6.576 -2.7439 s-4.7608 0.91432 -6.6164 2.7439 c-1.8025 1.8287 -2.7038 4.02 -2.7038 6.5752 s0.90124 4.7608 2.7038 6.6164 c1.8558 1.8025 4.0604 2.7038 6.6164 2.7038 c2.5542 0 4.7468 -0.90124 6.576 -2.7038 z M77.544 16.115 c2.7702 2.744 4.1556 6.0396 4.1564 9.8848 c0 3.9004 -1.3855 7.196 -4.1556 9.8848 c-2.7177 2.744 -6.0116 4.1156 -9.8848 4.1156 s-7.1688 -1.3724 -9.8848 -4.1156 c-2.744 -2.7168 -4.1156 -6.0116 -4.1156 -9.8848 c0 -3.8462 1.3715 -7.1408 4.1156 -9.8848 c2.6897 -2.744 5.9844 -4.1156 9.8848 -4.1156 c3.8724 0 7.1672 1.3724 9.884 4.1156 z M76.924 35.2692 c2.6294 -2.5534 3.9022 -5.5812 3.903 -9.2692 c0 -3.6364 -1.2745 -6.6664 -3.8969 -9.2632 c-2.5761 -2.6014 -5.606 -3.8628 -9.2692 -3.8628 c-3.6906 0 -6.7196 1.2605 -9.2608 3.8532 c-2.6032 2.6032 -3.8655 5.6348 -3.8655 9.2728 c0 3.6644 1.2614 6.694 3.8567 9.2632 c2.5752 2.6006 5.6052 3.862 9.2696 3.862 c3.6626 0 6.6932 -1.2614 9.2632 -3.8559 z M106.71000000000001 26.082 c1.6137 1.5866 2.4196 3.5098 2.4205 5.7684 c0 2.2334 -0.80684 4.1556 -2.4205 5.77 c-1.5883 1.5875 -3.5106 2.3803 -5.77 2.3803 l0 -4.6802 c0.4834 0 0.94144 -0.087424 1.3715 -0.26312 c0.43008 -0.17394 0.80684 -0.41608 1.1294 -0.72556 c0.32344 -0.30945 0.57084 -0.68008 0.74652 -1.1102 c0.17394 -0.43008 0.26223 -0.88728 0.26223 -1.3715 c0 -0.9406 -0.34965 -1.7606 -1.049 -2.4608 c-0.67224 -0.69928 -1.4922 -1.049 -2.4608 -1.049 l-6.9792 0 c-2.2596 0 -4.1836 -0.79372 -5.7692 -2.3803 c-1.5883 -1.5866 -2.3812 -3.5228 -2.3812 -5.8096 c0 -2.2326 0.79372 -4.1416 2.3812 -5.7292 c1.5604 -1.6137 3.4835 -2.4214 5.7692 -2.4214 l0 4.681 c-0.4834 0 -0.94144 0.086524 -1.3715 0.26223 s-0.80684 0.42396 -1.1294 0.74652 c-0.32254 0.32254 -0.57168 0.70016 -0.74652 1.1302 s-0.26226 0.87416 -0.26226 1.3304 c0 0.96856 0.33566 1.8025 1.0088 2.5018 c0.67132 0.69928 1.5053 1.0481 2.5009 1.0481 l6.9792 0 c2.2596 0 4.1828 0.7946 5.7704 2.3812 z M106.09200000000001 37.0022 c1.4563 -1.4572 2.1634 -3.1426 2.1642 -5.1524 c0 -2.0341 -0.70628 -3.7169 -2.1591 -5.146 c-1.4354 -1.4354 -3.1207 -2.1303 -5.1564 -2.1303 l-6.9792 0 c-1.2378 0 -2.2911 -0.44232 -3.1312 -1.3164 c-0.83132 -0.86368 -1.2526 -1.9091 -1.2526 -3.1076 c0 -0.56908 0.10926 -1.1276 0.32606 -1.66 c0.21856 -0.53672 0.535 -1.0149 0.93888 -1.4188 c0.40296 -0.40388 0.88024 -0.7194 1.4178 -0.93796 c0.2666 -0.1084 0.5428 -0.19058 0.82692 -0.24476 l0 -2.9695 c-1.667 0.1757 -3.0691 0.87068 -4.2668 2.1093 c-1.4406 1.4406 -2.1356 3.112 -2.1356 5.1216 c0 2.0647 0.6958 3.7623 2.125 5.1916 s3.1137 2.1242 5.1512 2.1242 l6.9792 0 c1.2098 0 2.25 0.4432 3.091 1.3174 c0.85492 0.8558 1.2938 1.8916 1.2938 3.0674 c0 0.5944 -0.11016 1.1661 -0.32606 1.7002 c-0.22465 0.54808 -0.54456 1.0227 -0.95368 1.4135 c-0.40212 0.38461 -0.87504 0.68884 -1.4056 0.90388 c-0.26574 0.1084 -0.54196 0.19058 -0.82604 0.24476 l0 2.9686 c1.6522 -0.17394 3.0578 -0.85924 4.278 -2.0787 z"></path></g><g id="SvgjsG10216" featureKey="sloganFeature-0" transform="matrix(0.4256838262081146,0,0,0.4256838262081146,94.53267300916059,89.5182636575555)" fill="#ffd460"><path d="M6.1 12.01 c2.72 0.56 5.21 1.37 5.21 4.33 c0 2.4 -1.61 3.96 -5.15 3.96 c-3.03 0 -4.85 -1.12 -5.06 -3.42 c-0.02 -0.2 0.1 -0.36 0.28 -0.36 l1.22 0 c0.18 0 0.28 0.14 0.3 0.3 c0.17 1.1 1.33 1.78 3.26 1.78 c2.13 0 3.31 -0.72 3.31 -2.24 c0 -1.77 -1.23 -2.15 -3.37 -2.65 c-2.54 -0.58 -4.68 -1.45 -4.68 -4.16 c0 -2.26 1.53 -3.72 4.62 -3.72 c2.86 0 4.62 1.09 4.85 3.35 c0.02 0.2 -0.1 0.3 -0.28 0.3 l-1.13 0 c-0.18 0 -0.28 -0.08 -0.3 -0.24 c-0.15 -1.02 -1.26 -1.74 -3.13 -1.74 c-1.72 0 -2.83 0.7 -2.83 2.05 c0 1.36 0.91 2.05 2.88 2.46 z M21.7605 20.26 c-3.96 0 -7.17 -3.2 -7.17 -7.2 c0 -4.02 3.21 -7.22 7.17 -7.22 c3.95 0 7.16 3.2 7.16 7.22 c0 4 -3.21 7.2 -7.16 7.2 z M21.7605 18.49 c2.97 0 5.32 -2.4 5.32 -5.43 c0 -3.05 -2.35 -5.45 -5.32 -5.45 c-2.98 0 -5.33 2.4 -5.33 5.45 c0 3.03 2.35 5.43 5.33 5.43 z M41.551 18.3 c0.18 0 0.3 0.12 0.3 0.3 l0 1.1 c0 0.18 -0.12 0.3 -0.3 0.3 l-8.45 0 c-0.18 0 -0.3 -0.12 -0.3 -0.3 l0 -13.4 c0 -0.18 0.12 -0.3 0.3 -0.3 l1.27 0 c0.18 0 0.3 0.12 0.3 0.3 l0 12 l6.88 0 z M54.781499999999994 6.24 c0.07 -0.18 0.18 -0.24 0.34 -0.24 l1.29 0 c0.22 0 0.32 0.14 0.24 0.34 l-5.08 13.42 c-0.06 0.16 -0.2 0.24 -0.36 0.24 l-1.26 0 c-0.16 0 -0.3 -0.08 -0.36 -0.24 l-5.08 -13.42 c-0.08 -0.2 0.02 -0.34 0.24 -0.34 l1.29 0 c0.16 0 0.27 0.06 0.34 0.24 l4.2 11.42 z M68.862 18.3 c0.18 0 0.3 0.12 0.3 0.3 l0 1.1 c0 0.18 -0.12 0.3 -0.3 0.3 l-8.55 0 c-0.18 0 -0.3 -0.12 -0.3 -0.3 l0 -13.4 c0 -0.18 0.12 -0.3 0.3 -0.3 l8.53 0 c0.18 0 0.3 0.12 0.3 0.3 l0 1.1 c0 0.18 -0.12 0.3 -0.3 0.3 l-6.96 0 l0 4.15 l6.43 0 c0.18 0 0.3 0.12 0.3 0.3 l0 1.1 c0 0.18 -0.12 0.3 -0.3 0.3 l-6.43 0 l0 4.75 l6.98 0 z M92.963 6 c0.24 0 0.33 0.15 0.2 0.36 l-5.25 8.21 l0 5.13 c0 0.18 -0.12 0.3 -0.3 0.3 l-1.27 0 c-0.18 0 -0.3 -0.12 -0.3 -0.3 l0 -5.13 l-5.26 -8.21 c-0.13 -0.21 -0.04 -0.36 0.2 -0.36 l1.47 0 c0.16 0 0.27 0.06 0.36 0.2 l4.16 6.51 l4.16 -6.51 c0.09 -0.14 0.2 -0.2 0.36 -0.2 l1.47 0 z M103.22349999999999 20.26 c-3.96 0 -7.17 -3.2 -7.17 -7.2 c0 -4.02 3.21 -7.22 7.17 -7.22 c3.95 0 7.16 3.2 7.16 7.22 c0 4 -3.21 7.2 -7.16 7.2 z M103.22349999999999 18.49 c2.97 0 5.32 -2.4 5.32 -5.43 c0 -3.05 -2.35 -5.45 -5.32 -5.45 c-2.98 0 -5.33 2.4 -5.33 5.45 c0 3.03 2.35 5.43 5.33 5.43 z M124.94399999999999 6 c0.18 0 0.3 0.12 0.3 0.3 l0 8.04 c0 3.98 -2.15 5.95 -5.67 5.95 c-3.51 0 -5.66 -1.97 -5.66 -5.95 l0 -8.04 c0 -0.18 0.12 -0.3 0.3 -0.3 l1.27 0 c0.18 0 0.3 0.12 0.3 0.3 l0 8.04 c0 2.83 1.5 4.18 3.79 4.18 c2.3 0 3.8 -1.35 3.8 -4.18 l0 -8.04 c0 -0.18 0.12 -0.3 0.3 -0.3 l1.27 0 z M136.5145 14.57 l2.68 5.08 c0.11 0.21 0.01 0.35 -0.22 0.35 l-1.32 0 c-0.16 0 -0.27 -0.07 -0.35 -0.22 l-2.58 -4.99 l-0.29 0 l-3.39 0 l0 4.91 c0 0.18 -0.12 0.3 -0.3 0.3 l-1.27 0 c-0.18 0 -0.3 -0.12 -0.3 -0.3 l0 -13.4 c0 -0.18 0.12 -0.3 0.3 -0.3 l4.96 0 c3.69 0 5.04 1.56 5.04 4.39 c0 2.22 -0.83 3.66 -2.96 4.18 z M131.0445 7.699999999999999 l0 5.39 l3.52 0 c1.86 0 3.1 -0.5 3.1 -2.7 c0 -2.19 -1.24 -2.69 -3.1 -2.69 l-3.52 0 z M156.9955 6 c3.69 0 5.04 1.56 5.04 4.39 c0 2.84 -1.35 4.4 -5.04 4.4 l-3.39 0 l0 4.91 c0 0.18 -0.12 0.3 -0.3 0.3 l-1.27 0 c-0.18 0 -0.3 -0.12 -0.3 -0.3 l0 -13.4 c0 -0.18 0.12 -0.3 0.3 -0.3 l4.96 0 z M157.1255 13.09 c1.86 0 3.1 -0.5 3.1 -2.7 c0 -2.19 -1.24 -2.69 -3.1 -2.69 l-3.52 0 l0 5.39 l3.52 0 z M172.90599999999998 14.57 l2.68 5.08 c0.11 0.21 0.01 0.35 -0.22 0.35 l-1.32 0 c-0.16 0 -0.27 -0.07 -0.35 -0.22 l-2.58 -4.99 l-0.29 0 l-3.39 0 l0 4.91 c0 0.18 -0.12 0.3 -0.3 0.3 l-1.27 0 c-0.18 0 -0.3 -0.12 -0.3 -0.3 l0 -13.4 c0 -0.18 0.12 -0.3 0.3 -0.3 l4.96 0 c3.69 0 5.04 1.56 5.04 4.39 c0 2.22 -0.83 3.66 -2.96 4.18 z M167.43599999999998 7.699999999999999 l0 5.39 l3.52 0 c1.86 0 3.1 -0.5 3.1 -2.7 c0 -2.19 -1.24 -2.69 -3.1 -2.69 l-3.52 0 z M186.2165 20.26 c-3.96 0 -7.17 -3.2 -7.17 -7.2 c0 -4.02 3.21 -7.22 7.17 -7.22 c3.95 0 7.16 3.2 7.16 7.22 c0 4 -3.21 7.2 -7.16 7.2 z M186.2165 18.49 c2.97 0 5.32 -2.4 5.32 -5.43 c0 -3.05 -2.35 -5.45 -5.32 -5.45 c-2.98 0 -5.33 2.4 -5.33 5.45 c0 3.03 2.35 5.43 5.33 5.43 z M204.06699999999998 12.440000000000001 c1.97 0.45 2.84 1.88 2.84 3.53 c0 2.77 -1.56 4.03 -4.97 4.03 l-4.63 0 c-0.18 0 -0.3 -0.12 -0.3 -0.3 l0 -13.4 c0 -0.18 0.12 -0.3 0.3 -0.3 l4.77 0 c3.13 0 4.13 1.7 4.13 3.39 c0 1.43 -0.65 2.59 -2.14 3.05 z M204.40699999999998 9.55 c0 -1.29 -0.81 -1.85 -2.5 -1.85 l-3.03 0 l0 4.05 l3.1 0 c1.63 0 2.43 -0.81 2.43 -2.2 z M201.90699999999998 18.3 c2.06 0 3.1 -0.62 3.1 -2.43 c0 -1.48 -0.88 -2.52 -3.02 -2.52 l-3.11 0 l0 4.95 l3.03 0 z M219.23749999999998 18.3 c0.18 0 0.3 0.12 0.3 0.3 l0 1.1 c0 0.18 -0.12 0.3 -0.3 0.3 l-8.45 0 c-0.18 0 -0.3 -0.12 -0.3 -0.3 l0 -13.4 c0 -0.18 0.12 -0.3 0.3 -0.3 l1.27 0 c0.18 0 0.3 0.12 0.3 0.3 l0 12 l6.88 0 z M231.96800000000002 18.3 c0.18 0 0.3 0.12 0.3 0.3 l0 1.1 c0 0.18 -0.12 0.3 -0.3 0.3 l-8.55 0 c-0.18 0 -0.3 -0.12 -0.3 -0.3 l0 -13.4 c0 -0.18 0.12 -0.3 0.3 -0.3 l8.53 0 c0.18 0 0.3 0.12 0.3 0.3 l0 1.1 c0 0.18 -0.12 0.3 -0.3 0.3 l-6.96 0 l0 4.15 l6.43 0 c0.18 0 0.3 0.12 0.3 0.3 l0 1.1 c0 0.18 -0.12 0.3 -0.3 0.3 l-6.43 0 l0 4.75 l6.98 0 z M250.1085 6 c0.18 0 0.3 0.12 0.3 0.3 l0 13.4 c0 0.18 -0.12 0.3 -0.3 0.3 l-1.27 0 c-0.18 0 -0.3 -0.12 -0.3 -0.3 l0 -10.15 l-4.29 10.22 c-0.06 0.16 -0.18 0.23 -0.34 0.23 l-1.24 0 c-0.16 0 -0.28 -0.07 -0.34 -0.23 l-4.26 -10.15 l0 10.08 c0 0.18 -0.12 0.3 -0.3 0.3 l-1.27 0 c-0.18 0 -0.3 -0.12 -0.3 -0.3 l0 -13.4 c0 -0.18 0.12 -0.3 0.3 -0.3 l1.59 0 c0.16 0 0.3 0.06 0.36 0.2 l4.85 11.69 l4.83 -11.69 c0.06 -0.14 0.2 -0.2 0.36 -0.2 l1.62 0 z M259.089 12.01 c2.72 0.56 5.21 1.37 5.21 4.33 c0 2.4 -1.61 3.96 -5.15 3.96 c-3.03 0 -4.85 -1.12 -5.06 -3.42 c-0.02 -0.2 0.1 -0.36 0.28 -0.36 l1.22 0 c0.18 0 0.28 0.14 0.3 0.3 c0.17 1.1 1.33 1.78 3.26 1.78 c2.13 0 3.31 -0.72 3.31 -2.24 c0 -1.77 -1.23 -2.15 -3.37 -2.65 c-2.54 -0.58 -4.68 -1.45 -4.68 -4.16 c0 -2.26 1.53 -3.72 4.62 -3.72 c2.86 0 4.62 1.09 4.85 3.35 c0.02 0.2 -0.1 0.3 -0.28 0.3 l-1.13 0 c-0.18 0 -0.28 -0.08 -0.3 -0.24 c-0.15 -1.02 -1.26 -1.74 -3.13 -1.74 c-1.72 0 -2.83 0.7 -2.83 2.05 c0 1.36 0.91 2.05 2.88 2.46 z M283.43 20.26 c-3.96 0 -7.17 -3.2 -7.17 -7.2 c0 -4.02 3.21 -7.22 7.17 -7.22 c3.95 0 7.16 3.2 7.16 7.22 c0 4 -3.21 7.2 -7.16 7.2 z M283.43 18.49 c2.97 0 5.32 -2.4 5.32 -5.43 c0 -3.05 -2.35 -5.45 -5.32 -5.45 c-2.98 0 -5.33 2.4 -5.33 5.45 c0 3.03 2.35 5.43 5.33 5.43 z M304.73049999999995 6 c0.18 0 0.3 0.12 0.3 0.3 l0 13.4 c0 0.16 -0.1 0.28 -0.25 0.3 l-1.64 0 c-0.16 0 -0.28 -0.06 -0.36 -0.2 l-6.44 -11.04 l0 10.94 c0 0.18 -0.12 0.3 -0.3 0.3 l-1.27 0 c-0.18 0 -0.3 -0.12 -0.3 -0.3 l0 -13.4 c0 -0.17 0.1 -0.28 0.26 -0.3 l1.63 0 c0.16 0 0.28 0.06 0.36 0.2 l6.44 11.03 l0 -10.93 c0 -0.18 0.12 -0.3 0.3 -0.3 l1.27 0 z M318.161 18.3 c0.18 0 0.3 0.12 0.3 0.3 l0 1.1 c0 0.18 -0.12 0.3 -0.3 0.3 l-8.55 0 c-0.18 0 -0.3 -0.12 -0.3 -0.3 l0 -13.4 c0 -0.18 0.12 -0.3 0.3 -0.3 l8.53 0 c0.18 0 0.3 0.12 0.3 0.3 l0 1.1 c0 0.18 -0.12 0.3 -0.3 0.3 l-6.96 0 l0 4.15 l6.43 0 c0.18 0 0.3 0.12 0.3 0.3 l0 1.1 c0 0.18 -0.12 0.3 -0.3 0.3 l-6.43 0 l0 4.75 l6.98 0 z M342.29200000000003 19.66 c0.08 0.2 -0.02 0.34 -0.24 0.34 l-1.29 0 c-0.16 0 -0.27 -0.06 -0.34 -0.24 l-0.99 -2.69 l-6.42 0 l-0.99 2.69 c-0.07 0.18 -0.18 0.24 -0.34 0.24 l-1.29 0 c-0.22 0 -0.32 -0.14 -0.24 -0.34 l5.08 -13.42 c0.06 -0.16 0.2 -0.24 0.36 -0.24 l1.26 0 c0.16 0 0.3 0.08 0.36 0.24 z M333.622 15.42 l5.2 0 l-2.6 -7.08 z M354.4025 18.3 c0.18 0 0.3 0.12 0.3 0.3 l0 1.1 c0 0.18 -0.12 0.3 -0.3 0.3 l-8.45 0 c-0.18 0 -0.3 -0.12 -0.3 -0.3 l0 -13.4 c0 -0.18 0.12 -0.3 0.3 -0.3 l1.27 0 c0.18 0 0.3 0.12 0.3 0.3 l0 12 l6.88 0 z M371.09299999999996 12.620000000000001 c0.18 0 0.3 0.12 0.3 0.3 l0 0.79 c0 3.69 -2.42 6.55 -6.4 6.55 c-4.03 0 -7.11 -3.22 -7.11 -7.23 c0 -4 3.1 -7.19 7.08 -7.19 c1.92 0 3.49 0.73 4.77 1.91 c0.14 0.13 0.15 0.28 0.01 0.42 l-0.8 0.85 c-0.14 0.14 -0.28 0.12 -0.42 0 c-0.99 -0.84 -2.11 -1.36 -3.56 -1.36 c-2.87 0 -5.17 2.31 -5.17 5.37 c0 3.07 2.25 5.4 5.2 5.4 c2.68 0 4.52 -1.73 4.6 -4.14 l-4.41 0 c-0.18 0 -0.3 -0.12 -0.3 -0.3 l0 -1.07 c0 -0.18 0.12 -0.3 0.3 -0.3 l5.91 0 z M382.0435 20.26 c-3.96 0 -7.17 -3.2 -7.17 -7.2 c0 -4.02 3.21 -7.22 7.17 -7.22 c3.95 0 7.16 3.2 7.16 7.22 c0 4 -3.21 7.2 -7.16 7.2 z M382.0435 18.49 c2.97 0 5.32 -2.4 5.32 -5.43 c0 -3.05 -2.35 -5.45 -5.32 -5.45 c-2.98 0 -5.33 2.4 -5.33 5.45 c0 3.03 2.35 5.43 5.33 5.43 z M400.424 14.57 l2.68 5.08 c0.11 0.21 0.01 0.35 -0.22 0.35 l-1.32 0 c-0.16 0 -0.27 -0.07 -0.35 -0.22 l-2.58 -4.99 l-0.29 0 l-3.39 0 l0 4.91 c0 0.18 -0.12 0.3 -0.3 0.3 l-1.27 0 c-0.18 0 -0.3 -0.12 -0.3 -0.3 l0 -13.4 c0 -0.18 0.12 -0.3 0.3 -0.3 l4.96 0 c3.69 0 5.04 1.56 5.04 4.39 c0 2.22 -0.83 3.66 -2.96 4.18 z M394.95399999999995 7.699999999999999 l0 5.39 l3.52 0 c1.86 0 3.1 -0.5 3.1 -2.7 c0 -2.19 -1.24 -2.69 -3.1 -2.69 l-3.52 0 z M416.36449999999996 7.699999999999999 l-3.74 0 l0 10.6 l3.74 0 c0.18 0 0.3 0.12 0.3 0.3 l0 1.1 c0 0.18 -0.12 0.3 -0.3 0.3 l-9.35 0 c-0.18 0 -0.3 -0.12 -0.3 -0.3 l0 -1.1 c0 -0.18 0.12 -0.3 0.3 -0.3 l3.74 0 l0 -10.6 l-3.74 0 c-0.18 0 -0.3 -0.12 -0.3 -0.3 l0 -1.1 c0 -0.18 0.12 -0.3 0.3 -0.3 l9.35 0 c0.18 0 0.3 0.12 0.3 0.3 l0 1.1 c0 0.18 -0.12 0.3 -0.3 0.3 z M430.49499999999995 6 c0.18 0 0.3 0.12 0.3 0.3 l0 1.1 c0 0.18 -0.12 0.3 -0.3 0.3 l-4.19 0 l0 12 c0 0.18 -0.12 0.3 -0.3 0.3 l-1.27 0 c-0.18 0 -0.3 -0.12 -0.3 -0.3 l0 -12 l-4.19 0 c-0.18 0 -0.3 -0.12 -0.3 -0.3 l0 -1.1 c0 -0.18 0.12 -0.3 0.3 -0.3 l10.25 0 z M444.85549999999995 6 c0.18 0 0.3 0.12 0.3 0.3 l0 13.4 c0 0.18 -0.12 0.3 -0.3 0.3 l-1.27 0 c-0.18 0 -0.3 -0.12 -0.3 -0.3 l0 -5.99 l-7.09 0 l0 5.99 c0 0.18 -0.12 0.3 -0.3 0.3 l-1.27 0 c-0.18 0 -0.3 -0.12 -0.3 -0.3 l0 -13.4 c0 -0.18 0.12 -0.3 0.3 -0.3 l1.27 0 c0.18 0 0.3 0.12 0.3 0.3 l0 5.71 l7.09 0 l0 -5.71 c0 -0.18 0.12 -0.3 0.3 -0.3 l1.27 0 z M463.34599999999995 6 c0.18 0 0.3 0.12 0.3 0.3 l0 13.4 c0 0.18 -0.12 0.3 -0.3 0.3 l-1.27 0 c-0.18 0 -0.3 -0.12 -0.3 -0.3 l0 -10.15 l-4.29 10.22 c-0.06 0.16 -0.18 0.23 -0.34 0.23 l-1.24 0 c-0.16 0 -0.28 -0.07 -0.34 -0.23 l-4.26 -10.15 l0 10.08 c0 0.18 -0.12 0.3 -0.3 0.3 l-1.27 0 c-0.18 0 -0.3 -0.12 -0.3 -0.3 l0 -13.4 c0 -0.18 0.12 -0.3 0.3 -0.3 l1.59 0 c0.16 0 0.3 0.06 0.36 0.2 l4.85 11.69 l4.83 -11.69 c0.06 -0.14 0.2 -0.2 0.36 -0.2 l1.62 0 z M487.82699999999994 19.66 c0.08 0.2 -0.02 0.34 -0.24 0.34 l-1.29 0 c-0.16 0 -0.27 -0.06 -0.34 -0.24 l-0.99 -2.69 l-6.42 0 l-0.99 2.69 c-0.07 0.18 -0.18 0.24 -0.34 0.24 l-1.29 0 c-0.22 0 -0.32 -0.14 -0.24 -0.34 l5.08 -13.42 c0.06 -0.16 0.2 -0.24 0.36 -0.24 l1.26 0 c0.16 0 0.3 0.08 0.36 0.24 z M479.1569999999999 15.42 l5.2 0 l-2.6 -7.08 z M500.98749999999995 6 c0.18 0 0.3 0.12 0.3 0.3 l0 1.1 c0 0.18 -0.12 0.3 -0.3 0.3 l-4.19 0 l0 12 c0 0.18 -0.12 0.3 -0.3 0.3 l-1.27 0 c-0.18 0 -0.3 -0.12 -0.3 -0.3 l0 -12 l-4.19 0 c-0.18 0 -0.3 -0.12 -0.3 -0.3 l0 -1.1 c0 -0.18 0.12 -0.3 0.3 -0.3 l10.25 0 z M524.7185 19.66 c0.08 0.2 -0.02 0.34 -0.24 0.34 l-1.29 0 c-0.16 0 -0.27 -0.06 -0.34 -0.24 l-0.99 -2.69 l-6.42 0 l-0.99 2.69 c-0.07 0.18 -0.18 0.24 -0.34 0.24 l-1.29 0 c-0.22 0 -0.32 -0.14 -0.24 -0.34 l5.08 -13.42 c0.06 -0.16 0.2 -0.24 0.36 -0.24 l1.26 0 c0.16 0 0.3 0.08 0.36 0.24 z M516.0484999999999 15.42 l5.2 0 l-2.6 -7.08 z M546.5595 6 c0.18 0 0.3 0.12 0.3 0.3 l0 1.1 c0 0.18 -0.12 0.3 -0.3 0.3 l-4.19 0 l0 12 c0 0.18 -0.12 0.3 -0.3 0.3 l-1.27 0 c-0.18 0 -0.3 -0.12 -0.3 -0.3 l0 -12 l-4.19 0 c-0.18 0 -0.3 -0.12 -0.3 -0.3 l0 -1.1 c0 -0.18 0.12 -0.3 0.3 -0.3 l10.25 0 z M559.79 7.699999999999999 l-3.74 0 l0 10.6 l3.74 0 c0.18 0 0.3 0.12 0.3 0.3 l0 1.1 c0 0.18 -0.12 0.3 -0.3 0.3 l-9.35 0 c-0.18 0 -0.3 -0.12 -0.3 -0.3 l0 -1.1 c0 -0.18 0.12 -0.3 0.3 -0.3 l3.74 0 l0 -10.6 l-3.74 0 c-0.18 0 -0.3 -0.12 -0.3 -0.3 l0 -1.1 c0 -0.18 0.12 -0.3 0.3 -0.3 l9.35 0 c0.18 0 0.3 0.12 0.3 0.3 l0 1.1 c0 0.18 -0.12 0.3 -0.3 0.3 z M578.0305 6 c0.18 0 0.3 0.12 0.3 0.3 l0 13.4 c0 0.18 -0.12 0.3 -0.3 0.3 l-1.27 0 c-0.18 0 -0.3 -0.12 -0.3 -0.3 l0 -10.15 l-4.29 10.22 c-0.06 0.16 -0.18 0.23 -0.34 0.23 l-1.24 0 c-0.16 0 -0.28 -0.07 -0.34 -0.23 l-4.26 -10.15 l0 10.08 c0 0.18 -0.12 0.3 -0.3 0.3 l-1.27 0 c-0.18 0 -0.3 -0.12 -0.3 -0.3 l0 -13.4 c0 -0.18 0.12 -0.3 0.3 -0.3 l1.59 0 c0.16 0 0.3 0.06 0.36 0.2 l4.85 11.69 l4.83 -11.69 c0.06 -0.14 0.2 -0.2 0.36 -0.2 l1.62 0 z M591.4609999999999 18.3 c0.18 0 0.3 0.12 0.3 0.3 l0 1.1 c0 0.18 -0.12 0.3 -0.3 0.3 l-8.55 0 c-0.18 0 -0.3 -0.12 -0.3 -0.3 l0 -13.4 c0 -0.18 0.12 -0.3 0.3 -0.3 l8.53 0 c0.18 0 0.3 0.12 0.3 0.3 l0 1.1 c0 0.18 -0.12 0.3 -0.3 0.3 l-6.96 0 l0 4.15 l6.43 0 c0.18 0 0.3 0.12 0.3 0.3 l0 1.1 c0 0.18 -0.12 0.3 -0.3 0.3 l-6.43 0 l0 4.75 l6.98 0 z"></path></g>
			</g>
		</svg>
	