<?xml version="1.0" encoding="UTF-8" standalone="no"?>
<!-- Created with Inkscape (http://www.inkscape.org/) -->

<svg
   width="589.95367mm"
   height="155.47604mm"
   viewBox="0 0 589.95367 155.47605"
   version="1.1"
   id="svg5"
   xml:space="preserve"
   inkscape:version="1.2.2 (732a01da63, 2022-12-09)"
   sodipodi:docname="company_name_no_background.svg"
   xmlns:inkscape="http://www.inkscape.org/namespaces/inkscape"
   xmlns:sodipodi="http://sodipodi.sourceforge.net/DTD/sodipodi-0.dtd"
   xmlns="http://www.w3.org/2000/svg"
   xmlns:svg="http://www.w3.org/2000/svg"><sodipodi:namedview
     id="namedview7"
     pagecolor="#505050"
     bordercolor="#eeeeee"
     borderopacity="1"
     inkscape:showpageshadow="0"
     inkscape:pageopacity="0"
     inkscape:pagecheckerboard="0"
     inkscape:deskcolor="#505050"
     inkscape:document-units="mm"
     showgrid="false"
     inkscape:zoom="0.32346812"
     inkscape:cx="700.22356"
     inkscape:cy="1245.8724"
     inkscape:window-width="1673"
     inkscape:window-height="1401"
     inkscape:window-x="906"
     inkscape:window-y="0"
     inkscape:window-maximized="0"
     inkscape:current-layer="g1787" /><defs
     id="defs2" /><g
     inkscape:label="Calque 1"
     inkscape:groupmode="layer"
     id="layer1"
     transform="translate(328.74464,203.06641)"><g
       transform="matrix(2.1452247,0,0,2.1452247,-532.54098,-203.06643)"
       id="g1787"><defs
         id="SvgjsDefs10213" /><g
         id="SvgjsG10215"
         featureKey="nameFeature-0"
         transform="matrix(2.5882874,0,0,2.5882874,87.546766,-31.057888)"
         fill="#ffd460"><path
           d="m 10.304,19.403 c -0.83396,0.84792 -1.5,1.8366 -1.9974,2.966 -0.49824,1.1303 -0.74648,2.3392 -0.74648,3.6312 0,1.2902 0.24824,2.5009 0.74648,3.6303 0.4974,1.1303 1.1696,2.119 2.0175,2.966 0.84704,0.84792 1.8357,1.5123 2.966,1.9965 1.1294,0.48516 2.3392,0.7264 3.6303,0.7264 l 5.4268,3.5901 c -1.6818,0.7264 -3.4896,1.09 -5.4268,1.09 -1.9354,0 -3.7518,-0.37062 -5.446,-1.1102 C 9.7794,38.1489 8.2934,37.1402 7.0152,35.8631 5.7381,34.5851 4.7293,33.0929 3.9898,31.3847 3.2494,29.6766 2.8796,27.8811 2.8796,25.9991 c 0,-1.9362 0.36976,-3.7527 1.1102,-5.4468 0.73952,-1.6941 1.7483,-3.174 3.0254,-4.4372 1.278,-1.2649 2.7649,-2.2658 4.4592,-3.0053 1.6941,-0.7404 3.5097,-1.1102 5.446,-1.1102 1.9371,0 3.7448,0.36277 5.4268,1.0901 1.681,0.7264 3.167,1.7343 4.458,3.0263 l -3.3078,3.2676 c -1.8558,-1.8025 -4.048,-2.7038 -6.576,-2.7038 -1.2911,0 -2.5079,0.24215 -3.6512,0.7264 -1.1442,0.48424 -2.132,1.1495 -2.966,1.9965 z m -2.7972,10.58 c -0.5446,-1.2343 -0.821,-2.5744 -0.821,-3.9835 0,-1.4082 0.27711,-2.7492 0.82172,-3.9843 0.53672,-1.2203 1.2675,-2.3051 2.1731,-3.2256 0.9126,-0.9266 2.0053,-1.6626 3.2484,-2.1889 1.2465,-0.52796 2.5892,-0.79548 3.9913,-0.79548 2.4677,0 4.6672,0.799 6.5492,2.3759 l 2.0752,-2.0499 c -1.0542,-0.92572 -2.243,-1.6775 -3.5446,-2.2395 -1.563,-0.67484 -3.2719,-1.0175 -5.0796,-1.0175 -1.8068,0 -3.521,0.34879 -5.0972,1.0358 -1.5883,0.6932 -2.9992,1.6442 -4.1932,2.8261 -1.1932,1.1801 -2.1478,2.5813 -2.8392,4.1652 -0.68796,1.5752 -1.0368,3.2903 -1.0368,5.098 0,1.7544 0.34879,3.4494 1.0376,5.0384 0.69144,1.5971 1.6478,3.0132 2.8418,4.208 1.195,1.1932 2.605,2.1504 4.1908,2.8427 1.5761,0.68796 3.2912,1.0368 5.0964,1.0368 1.208,0 2.3724,-0.15297 3.4791,-0.45628 l -3.7466,-2.4791 c -1.3077,-0.03148 -2.5534,-0.29808 -3.7073,-0.79372 -1.2282,-0.52536 -2.3182,-1.2596 -3.2395,-2.1819 -0.92132,-0.9196 -1.6609,-2.007 -2.1993,-3.2317 z m 23.4032,9.63192 4.6392,-4.2956 h 14 v 4.6802 H 30.9102 V 39.61491 Z M 48.676,36.1944 H 35.893 l -3.167,2.9319 h 15.95 z M 30.91,12 h 18.64 v 4.6802 h -14 z m 17.766,3.806 V 12.8741 H 33.008 l 2.9065,2.9319 h 12.762 z M 30.91,28.34 V 23.7 h 18.639 v 4.64 z m 0.8741,-3.766 v 2.8917 h 16.891 V 24.574 Z M 74.854,18.806 c 1.9904,1.9913 2.9991,4.4116 2.9982,7.1932 0,2.7807 -1.007,5.2136 -2.994,7.23 -2,1.9703 -4.4188,2.9642 -7.1996,2.9642 -2.778,0 -5.2088,-0.99216 -7.2256,-2.9502 -1.9756,-2.035 -2.9686,-4.466 -2.9686,-7.244 0,-2.7798 0.99392,-5.1984 2.9546,-7.1888 2.0254,-1.9965 4.458,-3.0044 7.2396,-3.0044 2.7841,0 5.2048,1.0096 7.1952,3.0001 z M 74.236,32.6164 C 76.0647,30.7606 76.9791,28.556 76.9791,26 c 0,-2.5542 -0.91432,-4.7456 -2.743,-6.5752 -1.82868,-1.8296 -4.0212,-2.7439 -6.576,-2.7439 -2.5548,0 -4.7608,0.91432 -6.6164,2.7439 -1.8025,1.8287 -2.7038,4.02 -2.7038,6.5752 0,2.5552 0.90124,4.7608 2.7038,6.6164 1.8558,1.8025 4.0604,2.7038 6.6164,2.7038 2.5542,0 4.7468,-0.90124 6.576,-2.7038 z M 77.544,16.115 c 2.7702,2.744 4.1556,6.0396 4.1564,9.8848 0,3.9004 -1.3855,7.196 -4.1556,9.8848 -2.7177,2.744 -6.0116,4.1156 -9.8848,4.1156 -3.8732,0 -7.1688,-1.3724 -9.8848,-4.1156 -2.744,-2.7168 -4.1156,-6.0116 -4.1156,-9.8848 0,-3.8462 1.3715,-7.1408 4.1156,-9.8848 2.6897,-2.744 5.9844,-4.1156 9.8848,-4.1156 3.8724,0 7.1672,1.3724 9.884,4.1156 z m -0.62,19.1542 C 79.5534,32.7158 80.8262,29.688 80.827,26 c 0,-3.6364 -1.2745,-6.6664 -3.8969,-9.2632 -2.5761,-2.6014 -5.606,-3.8628 -9.2692,-3.8628 -3.6906,0 -6.7196,1.2605 -9.2608,3.8532 -2.6032,2.6032 -3.8655,5.6348 -3.8655,9.2728 0,3.6644 1.2614,6.694 3.8567,9.2632 2.5752,2.6006 5.6052,3.862 9.2696,3.862 3.6626,0 6.6932,-1.2614 9.2632,-3.8559 z M 106.71,26.082 c 1.6137,1.5866 2.4196,3.5098 2.4205,5.7684 0,2.2334 -0.80684,4.1556 -2.4205,5.77 -1.5883,1.5875 -3.5106,2.3803 -5.77,2.3803 v -4.6802 c 0.4834,0 0.94144,-0.08742 1.3715,-0.26312 0.43008,-0.17394 0.80684,-0.41608 1.1294,-0.72556 0.32344,-0.30945 0.57084,-0.68008 0.74652,-1.1102 0.17394,-0.43008 0.26223,-0.88728 0.26223,-1.3715 0,-0.9406 -0.34965,-1.7606 -1.049,-2.4608 -0.67224,-0.69928 -1.4922,-1.049 -2.4608,-1.049 h -6.9792 c -2.2596,0 -4.1836,-0.79372 -5.7692,-2.3803 -1.5883,-1.5866 -2.3812,-3.5228 -2.3812,-5.8096 0,-2.2326 0.79372,-4.1416 2.3812,-5.7292 1.5604,-1.6137 3.4835,-2.4214 5.7692,-2.4214 v 4.681 c -0.4834,0 -0.94144,0.08652 -1.3715,0.26223 -0.43006,0.175706 -0.80684,0.42396 -1.1294,0.74652 -0.32254,0.32254 -0.57168,0.70016 -0.74652,1.1302 -0.17484,0.43004 -0.26226,0.87416 -0.26226,1.3304 0,0.96856 0.33566,1.8025 1.0088,2.5018 0.67132,0.69928 1.5053,1.0481 2.5009,1.0481 h 6.9792 c 2.2596,0 4.1828,0.7946 5.7704,2.3812 z m -0.618,10.9202 c 1.4563,-1.4572 2.1634,-3.1426 2.1642,-5.1524 0,-2.0341 -0.70628,-3.7169 -2.1591,-5.146 -1.4354,-1.4354 -3.1207,-2.1303 -5.1564,-2.1303 h -6.9792 c -1.2378,0 -2.2911,-0.44232 -3.1312,-1.3164 -0.83132,-0.86368 -1.2526,-1.9091 -1.2526,-3.1076 0,-0.56908 0.10926,-1.1276 0.32606,-1.66 0.21856,-0.53672 0.535,-1.0149 0.93888,-1.4188 0.40296,-0.40388 0.88024,-0.7194 1.4178,-0.93796 0.2666,-0.1084 0.5428,-0.19058 0.82692,-0.24476 v -2.9695 c -1.667,0.1757 -3.0691,0.87068 -4.2668,2.1093 -1.4406,1.4406 -2.1356,3.112 -2.1356,5.1216 0,2.0647 0.6958,3.7623 2.125,5.1916 1.4292,1.4293 3.1137,2.1242 5.1512,2.1242 h 6.9792 c 1.2098,0 2.25,0.4432 3.091,1.3174 0.85492,0.8558 1.2938,1.8916 1.2938,3.0674 0,0.5944 -0.11016,1.1661 -0.32606,1.7002 -0.22465,0.54808 -0.54456,1.0227 -0.95368,1.4135 -0.40212,0.38461 -0.87504,0.68884 -1.4056,0.90388 -0.26574,0.1084 -0.54196,0.19058 -0.82604,0.24476 v 2.9686 c 1.6522,-0.17394 3.0578,-0.85924 4.278,-2.0787 z"
           id="path1781" /></g></g></g></svg>
